<svg height="14" viewBox="0 0 14 14" width="14" xmlns="http://www.w3.org/2000/svg"><path d="m8.6002309 7 5.2573243-5.25732429c.1899264-.1899264.1899264-.49704142 0-.68696782l-.9132631-.91326309c-.1899264-.1899264-.4970414-.1899264-.6869678 0l-5.2573243 5.2573243-5.25732429-5.2573243c-.1899264-.1899264-.49704142-.1899264-.68696782 0l-.91326309.91326309c-.1899264.1899264-.1899264.49704142 0 .68696782l5.2573243 5.25732429-5.2573243 5.2573243c-.1899264.1899264-.1899264.4970414 0 .6869678l.91326309.9132631c.1899264.1899264.49704142.1899264.68696782 0l5.25732429-5.2573243 5.2573243 5.2573243c.1899264.1899264.4970414.1899264.6869678 0l.9132631-.9132631c.1899264-.1899264.1899264-.4970414 0-.6869678z" fill="#323a45"/></svg>