<?xml version="1.0" encoding="UTF-8"?>
<svg width="800px" height="164px" viewBox="0 0 800 164" version="1.1" xmlns="http://www.w3.org/2000/svg" xmlns:xlink="http://www.w3.org/1999/xlink" style="background: #FFFFFF;">
    <!-- Generator: Sketch 42 (36781) - http://www.bohemiancoding.com/sketch -->
    <title>Artboard</title>
    <desc>Created with Sketch.</desc>
    <defs></defs>
    <g id="Page-1" stroke="none" stroke-width="1" fill="none" fill-rule="evenodd">
        <g id="Artboard">
            <path d="M255.255,26.675 L255.255,44.003 C256.68,40.982 259.872,38.816 263.748,38.816 C271.158,38.816 275.262,44.972 275.262,53.693 C275.262,62.642 271.044,68.684 263.577,68.684 C259.758,68.684 256.395,66.689 254.913,63.383 L254.172,68 L248.586,68 L248.586,26.675 L255.255,26.675 Z M255.084,54.719 C255.084,59.849 257.535,63.44 261.639,63.44 C265.8,63.44 268.308,59.621 268.308,53.693 C268.308,47.936 265.914,44.06 261.582,44.06 C257.535,44.06 255.084,47.537 255.084,52.838 L255.084,54.719 Z M301.71,62.756 L301.71,68 L308.037,68 L308.037,39.5 L301.311,39.5 L301.311,55.061 C301.311,58.595 299.943,63.326 295.155,63.326 C292.476,63.326 290.139,62.015 290.139,56.771 L290.139,39.5 L283.356,39.5 L283.356,57.455 C283.356,61.901 284.211,64.58 285.978,66.29 C287.916,68.114 290.424,68.684 292.989,68.684 C297.15,68.684 300.456,65.663 301.71,62.756 Z M318.126,44.516 L325.935,44.516 L325.935,58.367 C325.935,64.751 329.64,68.456 337.107,68.456 C339.843,68.456 341.724,68.057 343.206,67.772 L343.206,62.129 C341.724,62.357 340.014,62.528 338.19,62.528 C334.599,62.528 332.661,60.761 332.661,57.341 L332.661,44.516 L343.206,44.516 L343.206,39.5 L332.661,39.5 L332.661,29.582 L325.935,32.261 L325.935,39.5 L318.126,39.5 L318.126,44.516 Z M353.466,44.516 L361.275,44.516 L361.275,58.367 C361.275,64.751 364.98,68.456 372.447,68.456 C375.183,68.456 377.064,68.057 378.546,67.772 L378.546,62.129 C377.064,62.357 375.354,62.528 373.53,62.528 C369.939,62.528 368.001,60.761 368.001,57.341 L368.001,44.516 L378.546,44.516 L378.546,39.5 L368.001,39.5 L368.001,29.582 L361.275,32.261 L361.275,39.5 L353.466,39.5 L353.466,44.516 Z M402.03,68.684 C393.936,68.684 388.179,62.984 388.179,53.75 C388.179,44.402 393.936,38.816 402.03,38.816 C410.124,38.816 415.881,44.402 415.881,53.75 C415.881,63.098 410.124,68.684 402.03,68.684 Z M402.03,63.44 C406.362,63.44 408.927,59.963 408.927,53.75 C408.927,47.594 406.362,44.06 402.03,44.06 C397.698,44.06 395.133,47.537 395.133,53.75 C395.133,59.963 397.698,63.44 402.03,63.44 Z M431.271,45.029 L431.271,39.5 L424.887,39.5 L424.887,68 L431.556,68 L431.556,52.61 C431.556,49.133 432.981,44.345 438.111,44.345 C440.676,44.345 443.127,45.713 443.127,51.128 L443.127,68 L449.853,68 L449.853,50.387 C449.853,45.656 448.884,42.92 447.06,41.153 C445.236,39.386 442.728,38.816 440.505,38.816 C435.831,38.816 432.753,41.552 431.271,45.029 Z M463.932,49.133 L463.932,55.175 L481.431,55.175 L481.431,49.133 L463.932,49.133 Z M499.272,49.133 L499.272,55.175 L516.771,55.175 L516.771,49.133 L499.272,49.133 Z M543.39,68.684 C535.296,68.684 529.539,62.984 529.539,53.75 C529.539,44.402 535.296,38.816 543.39,38.816 C551.484,38.816 557.241,44.402 557.241,53.75 C557.241,63.098 551.484,68.684 543.39,68.684 Z M543.39,63.44 C547.722,63.44 550.287,59.963 550.287,53.75 C550.287,47.594 547.722,44.06 543.39,44.06 C539.058,44.06 536.493,47.537 536.493,53.75 C536.493,59.963 539.058,63.44 543.39,63.44 Z M584.43,62.756 L584.43,68 L590.757,68 L590.757,39.5 L584.031,39.5 L584.031,55.061 C584.031,58.595 582.663,63.326 577.875,63.326 C575.196,63.326 572.859,62.015 572.859,56.771 L572.859,39.5 L566.076,39.5 L566.076,57.455 C566.076,61.901 566.931,64.58 568.698,66.29 C570.636,68.114 573.144,68.684 575.709,68.684 C579.87,68.684 583.176,65.663 584.43,62.756 Z M600.846,44.516 L608.655,44.516 L608.655,58.367 C608.655,64.751 612.36,68.456 619.827,68.456 C622.563,68.456 624.444,68.057 625.926,67.772 L625.926,62.129 C624.444,62.357 622.734,62.528 620.91,62.528 C617.319,62.528 615.381,60.761 615.381,57.341 L615.381,44.516 L625.926,44.516 L625.926,39.5 L615.381,39.5 L615.381,29.582 L608.655,32.261 L608.655,39.5 L600.846,39.5 L600.846,44.516 Z M638.181,68 L663.09,68 L663.09,62.87 L653.742,62.87 L653.742,26.675 L638.865,26.675 L638.865,31.805 L647.073,31.805 L647.073,62.87 L638.181,62.87 L638.181,68 Z M689.367,26.846 L681.045,26.846 L681.045,34.712 L689.367,34.712 L689.367,26.846 Z M673.521,68 L698.43,68 L698.43,62.87 L689.082,62.87 L689.082,39.5 L674.376,39.5 L674.376,44.63 L682.413,44.63 L682.413,62.87 L673.521,62.87 L673.521,68 Z M713.991,45.029 L713.991,39.5 L707.607,39.5 L707.607,68 L714.276,68 L714.276,52.61 C714.276,49.133 715.701,44.345 720.831,44.345 C723.396,44.345 725.847,45.713 725.847,51.128 L725.847,68 L732.573,68 L732.573,50.387 C732.573,45.656 731.604,42.92 729.78,41.153 C727.956,39.386 725.448,38.816 723.225,38.816 C718.551,38.816 715.473,41.552 713.991,45.029 Z M768.084,53.009 C768.084,53.75 768.027,54.548 767.97,55.289 L748.533,55.289 C748.533,59.906 751.326,63.326 755.829,63.326 C759.135,63.326 761.187,61.388 762.555,58.823 L767.913,61.445 C765.519,66.119 761.301,68.684 755.829,68.684 C746.481,68.684 741.807,62.699 741.807,53.465 C741.807,44.573 747.051,38.816 755.316,38.816 C764.151,38.816 768.084,44.858 768.084,53.009 Z M761.301,50.957 C761.358,46.739 759.42,43.49 755.145,43.49 C750.756,43.49 748.476,47.081 748.476,50.957 L761.301,50.957 Z" id="button--outline" fill="#0071BC"></path>
            <path d="M145.912,49.133 L145.912,55.175 L163.411,55.175 L163.411,49.133 L145.912,49.133 Z M190.087,68.684 C197.611,68.684 201.715,64.01 202.627,58.367 L196.186,57.113 C195.616,60.989 193.621,63.212 190.087,63.212 C185.413,63.212 183.133,59.279 183.133,53.465 C183.133,47.879 185.413,44.117 189.916,44.117 C193.393,44.117 195.502,46.169 196.015,49.988 L202.684,48.962 C201.829,42.521 197.041,38.816 190.258,38.816 C180.91,38.816 176.236,45.086 176.236,53.636 C176.236,62.072 181.081,68.684 190.087,68.684 Z M216.592,49.133 L216.592,55.175 L234.091,55.175 L234.091,49.133 L216.592,49.133 Z" id="-c-" fill="#E31C3D"></path>
            <path d="M53.059,59.45 L44.224,59.45 L44.224,68 L53.059,68 L53.059,59.45 Z M89.197,26.675 L95.923,26.675 L95.923,68 L89.596,68 L89.596,62.813 C88.114,66.233 85.435,68.684 80.704,68.684 C73.75,68.684 69.19,62.813 69.19,53.75 C69.19,44.801 73.921,38.816 81.388,38.816 C85.207,38.816 87.943,40.868 89.197,43.604 L89.197,26.675 Z M89.368,52.895 C89.368,47.594 86.86,44.06 82.87,44.06 C78.538,44.06 76.201,47.708 76.201,53.693 C76.201,59.678 78.652,63.44 82.699,63.44 C86.803,63.44 89.368,59.963 89.368,54.605 L89.368,52.895 Z M119.749,68.684 C127.159,68.684 131.719,65.321 131.719,59.564 C131.719,55.004 129.211,52.097 123.739,51.356 L118.78,50.672 C115.645,50.273 114.334,49.133 114.334,47.138 C114.334,44.858 116.215,43.661 119.521,43.661 C123.169,43.661 125.734,45.656 126.931,48.62 L131.776,46.055 C130.351,41.609 125.905,38.816 119.749,38.816 C112.567,38.816 108.064,42.122 108.064,47.594 C108.064,52.097 110.971,55.232 116.614,55.916 L121.117,56.486 C124.081,56.885 125.392,57.854 125.392,60.134 C125.392,62.414 123.568,63.725 120.091,63.725 C115.93,63.725 113.023,61.787 111.712,58.082 L106.696,60.476 C108.349,65.72 113.023,68.684 119.749,68.684 Z" id=".ds" fill="#212121"></path>
            <rect id="Rectangle" fill="#212121" x="39" y="84" width="96" height="10"></rect>
            <rect id="Rectangle-Copy-2" fill="#0071BC" x="247" y="84" width="519" height="10"></rect>
            <rect id="Rectangle-Copy" fill="#E31C3D" x="162" y="84" width="50" height="10"></rect>
            <path d="M52.090332,132 L49.3720703,132 L42.7016602,121.191895 L42.6274414,121.191895 L42.6738281,121.794922 C42.7604171,122.945318 42.8037109,123.99674 42.8037109,124.949219 L42.8037109,132 L40.7905273,132 L40.7905273,118.436523 L43.480957,118.436523 L50.1328125,129.188965 L50.1884766,129.188965 C50.1761067,129.046712 50.1513674,128.528732 50.1142578,127.63501 C50.0771483,126.741288 50.0585938,126.043948 50.0585938,125.542969 L50.0585938,118.436523 L52.090332,118.436523 L52.090332,132 Z M61.859375,132 L61.4233398,130.571289 L61.3491211,130.571289 C60.854327,131.195967 60.3564478,131.621174 59.8554688,131.846924 C59.3544897,132.072674 58.7112669,132.185547 57.9257812,132.185547 C56.9176382,132.185547 56.1306181,131.913414 55.5646973,131.369141 C54.9987765,130.824867 54.7158203,130.054855 54.7158203,129.059082 C54.7158203,128.00146 55.1085573,127.203616 55.894043,126.665527 C56.6795287,126.127439 57.876294,125.833659 59.484375,125.78418 L61.2563477,125.728516 L61.2563477,125.181152 C61.2563477,124.52555 61.103273,124.035402 60.7971191,123.710693 C60.4909653,123.385985 60.0162793,123.223633 59.3730469,123.223633 C58.8473281,123.223633 58.3432641,123.300943 57.8608398,123.455566 C57.3784156,123.61019 56.914553,123.792642 56.4692383,124.00293 L55.7641602,122.444336 C56.3208036,122.153644 56.9300097,121.932537 57.5917969,121.781006 C58.253584,121.629475 58.8782523,121.553711 59.4658203,121.553711 C60.7708399,121.553711 61.7557747,121.838213 62.4206543,122.407227 C63.0855339,122.97624 63.4179688,123.869948 63.4179688,125.088379 L63.4179688,132 L61.859375,132 Z M58.6123047,130.515625 C59.4039753,130.515625 60.039467,130.294517 60.5187988,129.852295 C60.9981307,129.410073 61.237793,128.790043 61.237793,127.992188 L61.237793,127.101562 L59.9204102,127.157227 C58.8937123,127.194336 58.1468936,127.365965 57.6799316,127.672119 C57.2129697,127.978273 56.9794922,128.446774 56.9794922,129.077637 C56.9794922,129.535321 57.1155585,129.889403 57.3876953,130.139893 C57.6598321,130.390382 58.0680311,130.515625 58.6123047,130.515625 Z M75.1074219,132 L72.9179688,132 L72.9179688,125.672852 C72.9179688,124.887366 72.7695327,124.301353 72.4726562,123.914795 C72.1757798,123.528237 71.7119172,123.334961 71.0810547,123.334961 C70.2399046,123.334961 69.6229675,123.60864 69.2302246,124.156006 C68.8374818,124.703372 68.6411133,125.614089 68.6411133,126.888184 L68.6411133,132 L66.4609375,132 L66.4609375,121.739258 L68.1679688,121.739258 L68.4741211,123.084473 L68.5854492,123.084473 C68.8699558,122.595863 69.2827935,122.218589 69.8239746,121.952637 C70.3651557,121.686685 70.960446,121.553711 71.6098633,121.553711 C73.1870196,121.553711 74.2322565,122.091791 74.7456055,123.167969 L74.894043,123.167969 C75.1971044,122.660805 75.6238579,122.264975 76.1743164,121.980469 C76.7247749,121.695962 77.355628,121.553711 78.0668945,121.553711 C79.29151,121.553711 80.1836723,121.862953 80.7434082,122.481445 C81.3031441,123.099938 81.5830078,124.043125 81.5830078,125.311035 L81.5830078,132 L79.402832,132 L79.402832,125.672852 C79.402832,124.887366 79.2528498,124.301353 78.9528809,123.914795 C78.6529119,123.528237 78.1875032,123.334961 77.5566406,123.334961 C76.7093057,123.334961 76.0892761,123.599363 75.6965332,124.128174 C75.3037904,124.656985 75.1074219,125.468745 75.1074219,126.563477 L75.1074219,132 Z M89.1069336,132.185547 C87.5112225,132.185547 86.2634322,131.720138 85.3635254,130.789307 C84.4636185,129.858475 84.0136719,128.576668 84.0136719,126.943848 C84.0136719,125.267733 84.4311482,123.950363 85.2661133,122.991699 C86.1010784,122.033036 87.2483651,121.553711 88.7080078,121.553711 C90.0625068,121.553711 91.1324831,121.965002 91.9179688,122.787598 C92.7034544,123.610193 93.0961914,124.742018 93.0961914,126.183105 L93.0961914,127.361328 L86.2587891,127.361328 C86.2897137,128.357101 86.558754,129.122475 87.065918,129.657471 C87.573082,130.192467 88.2874303,130.459961 89.2089844,130.459961 C89.8151072,130.459961 90.3794733,130.402751 90.9020996,130.28833 C91.4247259,130.173909 91.9859996,129.983725 92.5859375,129.717773 L92.5859375,131.489746 C92.0540338,131.743328 91.5159532,131.922688 90.9716797,132.027832 C90.4274061,132.132976 89.8058303,132.185547 89.1069336,132.185547 Z M88.7080078,123.205078 C88.015296,123.205078 87.4602072,123.42464 87.0427246,123.86377 C86.6252421,124.302899 86.3763025,124.94303 86.2958984,125.78418 L90.953125,125.78418 C90.9407551,124.936845 90.7366556,124.295168 90.3408203,123.859131 C89.944985,123.423094 89.4007196,123.205078 88.7080078,123.205078 Z M102.466309,129.077637 C102.466309,130.079595 102.101403,130.84806 101.371582,131.383057 C100.641761,131.918053 99.5965237,132.185547 98.2358398,132.185547 C96.868971,132.185547 95.771163,131.978355 94.9423828,131.563965 L94.9423828,129.680664 C96.1484435,130.237307 97.2709909,130.515625 98.3100586,130.515625 C99.6521877,130.515625 100.323242,130.110518 100.323242,129.300293 C100.323242,129.040526 100.249024,128.824057 100.100586,128.650879 C99.9521477,128.477701 99.7078468,128.298341 99.3676758,128.112793 C99.0275048,127.927245 98.554365,127.716961 97.9482422,127.481934 C96.7669212,127.024249 95.9675314,126.566571 95.5500488,126.108887 C95.1325663,125.651202 94.9238281,125.057458 94.9238281,124.327637 C94.9238281,123.449377 95.2779099,122.767499 95.986084,122.281982 C96.6942581,121.796466 97.657546,121.553711 98.8759766,121.553711 C100.082037,121.553711 101.223139,121.798012 102.299316,122.286621 L101.594238,123.928711 C100.487136,123.471026 99.5563189,123.242188 98.8017578,123.242188 C97.6513614,123.242188 97.0761719,123.569984 97.0761719,124.225586 C97.0761719,124.547202 97.2261541,124.819335 97.526123,125.041992 C97.826092,125.26465 98.4801382,125.570799 99.4882812,125.960449 C100.335616,126.28825 100.951007,126.588215 101.334473,126.860352 C101.717938,127.132488 102.00244,127.446369 102.187988,127.802002 C102.373536,128.157635 102.466309,128.582843 102.466309,129.077637 Z M110.027344,132.185547 C108.728509,132.185547 107.720381,131.718592 107.00293,130.784668 L106.873047,130.784668 C106.959636,131.650558 107.00293,132.176269 107.00293,132.361816 L107.00293,136.564453 L104.822754,136.564453 L104.822754,121.739258 L106.585449,121.739258 C106.634929,121.930991 106.736978,122.388668 106.891602,123.112305 L107.00293,123.112305 C107.683272,122.073237 108.703769,121.553711 110.064453,121.553711 C111.344733,121.553711 112.342037,122.017573 113.056396,122.945312 C113.770756,123.873052 114.12793,125.174959 114.12793,126.851074 C114.12793,128.527189 113.764571,129.835282 113.037842,130.775391 C112.311113,131.715499 111.307624,132.185547 110.027344,132.185547 Z M109.498535,123.334961 C108.632645,123.334961 108.000246,123.588539 107.601318,124.095703 C107.202391,124.602867 107.00293,125.41308 107.00293,126.526367 L107.00293,126.851074 C107.00293,128.100429 107.200844,129.004961 107.59668,129.564697 C107.992515,130.124433 108.63883,130.404297 109.535645,130.404297 C110.290206,130.404297 110.87158,130.095055 111.279785,129.476562 C111.68799,128.85807 111.89209,127.976731 111.89209,126.83252 C111.89209,125.682123 111.689537,124.811608 111.284424,124.220947 C110.879311,123.630287 110.284021,123.334961 109.498535,123.334961 Z M123.080566,132 L122.644531,130.571289 L122.570312,130.571289 C122.075518,131.195967 121.577639,131.621174 121.07666,131.846924 C120.575681,132.072674 119.932458,132.185547 119.146973,132.185547 C118.13883,132.185547 117.351809,131.913414 116.785889,131.369141 C116.219968,130.824867 115.937012,130.054855 115.937012,129.059082 C115.937012,128.00146 116.329749,127.203616 117.115234,126.665527 C117.90072,126.127439 119.097485,125.833659 120.705566,125.78418 L122.477539,125.728516 L122.477539,125.181152 C122.477539,124.52555 122.324464,124.035402 122.018311,123.710693 C121.712157,123.385985 121.237471,123.223633 120.594238,123.223633 C120.06852,123.223633 119.564456,123.300943 119.082031,123.455566 C118.599607,123.61019 118.135744,123.792642 117.69043,124.00293 L116.985352,122.444336 C117.541995,122.153644 118.151201,121.932537 118.812988,121.781006 C119.474775,121.629475 120.099444,121.553711 120.687012,121.553711 C121.992031,121.553711 122.976966,121.838213 123.641846,122.407227 C124.306725,122.97624 124.63916,123.869948 124.63916,125.088379 L124.63916,132 L123.080566,132 Z M119.833496,130.515625 C120.625167,130.515625 121.260658,130.294517 121.73999,129.852295 C122.219322,129.410073 122.458984,128.790043 122.458984,127.992188 L122.458984,127.101562 L121.141602,127.157227 C120.114904,127.194336 119.368085,127.365965 118.901123,127.672119 C118.434161,127.978273 118.200684,128.446774 118.200684,129.077637 C118.200684,129.535321 118.33675,129.889403 118.608887,130.139893 C118.881023,130.390382 119.289223,130.515625 119.833496,130.515625 Z M131.819824,132.185547 C130.267408,132.185547 129.087651,131.732508 128.280518,130.826416 C127.473385,129.920324 127.069824,128.619963 127.069824,126.925293 C127.069824,125.199698 127.491939,123.873052 128.336182,122.945312 C129.180424,122.017573 130.400383,121.553711 131.996094,121.553711 C133.078456,121.553711 134.052567,121.754718 134.918457,122.156738 L134.259766,123.910156 C133.338212,123.55143 132.577477,123.37207 131.977539,123.37207 C130.202465,123.37207 129.314941,124.550281 129.314941,126.906738 C129.314941,128.057135 129.536049,128.921465 129.978271,129.499756 C130.420494,130.078047 131.068355,130.367188 131.921875,130.367188 C132.892909,130.367188 133.811356,130.125979 134.677246,129.643555 L134.677246,131.54541 C134.287596,131.774252 133.871666,131.938151 133.429443,132.037109 C132.987221,132.136068 132.450687,132.185547 131.819824,132.185547 Z M141.570312,132.185547 C139.974601,132.185547 138.726811,131.720138 137.826904,130.789307 C136.926997,129.858475 136.477051,128.576668 136.477051,126.943848 C136.477051,125.267733 136.894527,123.950363 137.729492,122.991699 C138.564457,122.033036 139.711744,121.553711 141.171387,121.553711 C142.525886,121.553711 143.595862,121.965002 144.381348,122.787598 C145.166833,123.610193 145.55957,124.742018 145.55957,126.183105 L145.55957,127.361328 L138.722168,127.361328 C138.753093,128.357101 139.022133,129.122475 139.529297,129.657471 C140.036461,130.192467 140.750809,130.459961 141.672363,130.459961 C142.278486,130.459961 142.842852,130.402751 143.365479,130.28833 C143.888105,130.173909 144.449379,129.983725 145.049316,129.717773 L145.049316,131.489746 C144.517413,131.743328 143.979332,131.922688 143.435059,132.027832 C142.890785,132.132976 142.269209,132.185547 141.570312,132.185547 Z M141.171387,123.205078 C140.478675,123.205078 139.923586,123.42464 139.506104,123.86377 C139.088621,124.302899 138.839681,124.94303 138.759277,125.78418 L143.416504,125.78418 C143.404134,124.936845 143.200035,124.295168 142.804199,123.859131 C142.408364,123.423094 141.864099,123.205078 141.171387,123.205078 Z" id="Namespace" fill="#212121"></path>
            <path d="M172.770996,122.537109 C172.770996,123.953458 172.307134,125.038896 171.379395,125.793457 C170.451656,126.548018 169.131193,126.925293 167.417969,126.925293 L166.007812,126.925293 L166.007812,132 L163.790527,132 L163.790527,118.436523 L167.696289,118.436523 C169.390959,118.436523 170.660396,118.782874 171.504639,119.475586 C172.348881,120.168298 172.770996,121.188795 172.770996,122.537109 Z M166.007812,125.060547 L167.186035,125.060547 C168.324062,125.060547 169.159014,124.862632 169.690918,124.466797 C170.222822,124.070962 170.48877,123.452478 170.48877,122.611328 C170.48877,121.832027 170.250653,121.250653 169.774414,120.867188 C169.298175,120.483722 168.555995,120.291992 167.547852,120.291992 L166.007812,120.291992 L166.007812,125.060547 Z M180.452637,121.553711 C180.891767,121.553711 181.253579,121.584635 181.538086,121.646484 L181.324707,123.678223 C181.015461,123.604004 180.693849,123.566895 180.359863,123.566895 C179.487789,123.566895 178.781171,123.851397 178.23999,124.42041 C177.698809,124.989423 177.428223,125.728511 177.428223,126.637695 L177.428223,132 L175.248047,132 L175.248047,121.739258 L176.955078,121.739258 L177.242676,123.54834 L177.354004,123.54834 C177.694175,122.936032 178.137937,122.450523 178.685303,122.091797 C179.232669,121.733071 179.821774,121.553711 180.452637,121.553711 Z M187.540527,132.185547 C185.944816,132.185547 184.697026,131.720138 183.797119,130.789307 C182.897212,129.858475 182.447266,128.576668 182.447266,126.943848 C182.447266,125.267733 182.864742,123.950363 183.699707,122.991699 C184.534672,122.033036 185.681959,121.553711 187.141602,121.553711 C188.496101,121.553711 189.566077,121.965002 190.351562,122.787598 C191.137048,123.610193 191.529785,124.742018 191.529785,126.183105 L191.529785,127.361328 L184.692383,127.361328 C184.723307,128.357101 184.992348,129.122475 185.499512,129.657471 C186.006676,130.192467 186.721024,130.459961 187.642578,130.459961 C188.248701,130.459961 188.813067,130.402751 189.335693,130.28833 C189.85832,130.173909 190.419593,129.983725 191.019531,129.717773 L191.019531,131.489746 C190.487628,131.743328 189.949547,131.922688 189.405273,132.027832 C188.861,132.132976 188.239424,132.185547 187.540527,132.185547 Z M187.141602,123.205078 C186.44889,123.205078 185.893801,123.42464 185.476318,123.86377 C185.058836,124.302899 184.809896,124.94303 184.729492,125.78418 L189.386719,125.78418 C189.374349,124.936845 189.170249,124.295168 188.774414,123.859131 C188.378579,123.423094 187.834313,123.205078 187.141602,123.205078 Z M199.155762,123.390625 L196.650879,123.390625 L196.650879,132 L194.461426,132 L194.461426,123.390625 L192.772949,123.390625 L192.772949,122.370117 L194.461426,121.702148 L194.461426,121.03418 C194.461426,119.821934 194.745928,118.923587 195.314941,118.339111 C195.883955,117.754636 196.752924,117.462402 197.921875,117.462402 C198.688806,117.462402 199.443356,117.589191 200.185547,117.842773 L199.610352,119.494141 C199.072263,119.320963 198.558922,119.234375 198.070312,119.234375 C197.575518,119.234375 197.215252,119.38745 196.989502,119.693604 C196.763752,119.999757 196.650879,120.458981 196.650879,121.071289 L196.650879,121.739258 L199.155762,121.739258 L199.155762,123.390625 Z M203.080078,132 L200.899902,132 L200.899902,121.739258 L203.080078,121.739258 L203.080078,132 Z M200.77002,119.020996 C200.77002,118.631346 200.876708,118.331381 201.090088,118.121094 C201.303468,117.910806 201.608071,117.805664 202.003906,117.805664 C202.387372,117.805664 202.68579,117.910806 202.89917,118.121094 C203.11255,118.331381 203.219238,118.631346 203.219238,119.020996 C203.219238,119.392092 203.11255,119.684325 202.89917,119.897705 C202.68579,120.111085 202.387372,120.217773 202.003906,120.217773 C201.608071,120.217773 201.303468,120.111085 201.090088,119.897705 C200.876708,119.684325 200.77002,119.392092 200.77002,119.020996 Z M208.48877,126.758301 L205.046875,121.739258 L207.533203,121.739258 L209.871094,125.32959 L212.227539,121.739258 L214.695312,121.739258 L211.244141,126.758301 L214.871582,132 L212.403809,132 L209.871094,128.15918 L207.347656,132 L204.879883,132 L208.48877,126.758301 Z" id="Prefix" fill="#E31C3D"></path>
            <path d="M247.790527,118.436523 L251.816895,118.436523 C253.684742,118.436523 255.034582,118.708656 255.866455,119.25293 C256.698328,119.797203 257.114258,120.656895 257.114258,121.832031 C257.114258,122.623702 256.910158,123.282387 256.501953,123.808105 C256.093748,124.333824 255.506189,124.664713 254.739258,124.800781 L254.739258,124.893555 C255.691737,125.072918 256.392169,125.426999 256.840576,125.955811 C257.288983,126.484622 257.513184,127.200516 257.513184,128.103516 C257.513184,129.321946 257.087976,130.275957 256.237549,130.965576 C255.387121,131.655196 254.204272,132 252.688965,132 L247.790527,132 L247.790527,118.436523 Z M250.007812,124.040039 L252.141602,124.040039 C253.069341,124.040039 253.74658,123.893149 254.17334,123.599365 C254.6001,123.305581 254.813477,122.806156 254.813477,122.101074 C254.813477,121.464027 254.583091,121.003257 254.122314,120.71875 C253.661537,120.434243 252.930181,120.291992 251.928223,120.291992 L250.007812,120.291992 L250.007812,124.040039 Z M250.007812,125.839844 L250.007812,130.135254 L252.364258,130.135254 C253.291997,130.135254 253.992429,129.95744 254.465576,129.601807 C254.938723,129.246173 255.175293,128.6849 255.175293,127.917969 C255.175293,127.212887 254.934084,126.690269 254.45166,126.350098 C253.969236,126.009927 253.236333,125.839844 252.25293,125.839844 L250.007812,125.839844 Z M268.005859,132 L260.333496,132 L260.333496,118.436523 L268.005859,118.436523 L268.005859,120.310547 L262.550781,120.310547 L262.550781,124.00293 L267.662598,124.00293 L267.662598,125.858398 L262.550781,125.858398 L262.550781,130.116699 L268.005859,130.116699 L268.005859,132 Z M276.800781,132 L272.867188,120.672363 L272.792969,120.672363 C272.898113,122.354663 272.950684,123.931796 272.950684,125.403809 L272.950684,132 L270.9375,132 L270.9375,118.436523 L274.063965,118.436523 L277.830566,129.226074 L277.88623,129.226074 L281.76416,118.436523 L284.899902,118.436523 L284.899902,132 L282.766113,132 L282.766113,125.29248 C282.766113,124.618323 282.783122,123.740077 282.817139,122.657715 C282.851156,121.575353 282.880534,120.91976 282.905273,120.690918 L282.831055,120.690918 L278.758301,132 L276.800781,132 Z M300.068359,129.077637 C300.068359,130.079595 299.703454,130.84806 298.973633,131.383057 C298.243811,131.918053 297.198575,132.185547 295.837891,132.185547 C294.471022,132.185547 293.373214,131.978355 292.544434,131.563965 L292.544434,129.680664 C293.750494,130.237307 294.873042,130.515625 295.912109,130.515625 C297.254238,130.515625 297.925293,130.110518 297.925293,129.300293 C297.925293,129.040526 297.851075,128.824057 297.702637,128.650879 C297.554198,128.477701 297.309898,128.298341 296.969727,128.112793 C296.629556,127.927245 296.156416,127.716961 295.550293,127.481934 C294.368972,127.024249 293.569582,126.566571 293.1521,126.108887 C292.734617,125.651202 292.525879,125.057458 292.525879,124.327637 C292.525879,123.449377 292.879961,122.767499 293.588135,122.281982 C294.296309,121.796466 295.259597,121.553711 296.478027,121.553711 C297.684088,121.553711 298.82519,121.798012 299.901367,122.286621 L299.196289,123.928711 C298.089187,123.471026 297.15837,123.242188 296.403809,123.242188 C295.253412,123.242188 294.678223,123.569984 294.678223,124.225586 C294.678223,124.547202 294.828205,124.819335 295.128174,125.041992 C295.428143,125.26465 296.082189,125.570799 297.090332,125.960449 C297.937667,126.28825 298.553058,126.588215 298.936523,126.860352 C299.319989,127.132488 299.604491,127.446369 299.790039,127.802002 C299.975587,128.157635 300.068359,128.582843 300.068359,129.077637 Z M300.866211,121.739258 L303.241211,121.739258 L305.328613,127.556152 C305.644045,128.384933 305.854329,129.164222 305.959473,129.894043 L306.033691,129.894043 C306.089356,129.553872 306.191406,129.141034 306.339844,128.655518 C306.488282,128.170001 307.273756,125.864604 308.696289,121.739258 L311.052734,121.739258 L306.664551,133.36377 C305.866695,135.497569 304.536956,136.564453 302.675293,136.564453 C302.192869,136.564453 301.722821,136.511882 301.265137,136.406738 L301.265137,134.681152 C301.592938,134.755371 301.96712,134.79248 302.387695,134.79248 C303.439133,134.79248 304.178221,134.183274 304.60498,132.964844 L304.985352,132 L300.866211,121.739258 Z M321.638184,132 L319.44873,132 L319.44873,125.691406 C319.44873,124.899736 319.289471,124.309084 318.970947,123.919434 C318.652424,123.529783 318.146813,123.334961 317.454102,123.334961 C316.532547,123.334961 315.858401,123.607094 315.431641,124.151367 C315.004881,124.695641 314.791504,125.607904 314.791504,126.888184 L314.791504,132 L312.611328,132 L312.611328,121.739258 L314.318359,121.739258 L314.624512,123.084473 L314.73584,123.084473 C315.045086,122.595863 315.484209,122.218589 316.053223,121.952637 C316.622236,121.686685 317.253089,121.553711 317.945801,121.553711 C320.407402,121.553711 321.638184,122.80614 321.638184,125.311035 L321.638184,132 Z M328.494141,130.422852 C329.026044,130.422852 329.55794,130.339356 330.089844,130.172363 L330.089844,131.814453 C329.848632,131.919597 329.537844,132.007731 329.157471,132.078857 C328.777098,132.149984 328.382815,132.185547 327.974609,132.185547 C325.908844,132.185547 324.875977,131.097016 324.875977,128.919922 L324.875977,123.390625 L323.475098,123.390625 L323.475098,122.425781 L324.978027,121.62793 L325.720215,119.457031 L327.06543,119.457031 L327.06543,121.739258 L329.987793,121.739258 L329.987793,123.390625 L327.06543,123.390625 L327.06543,128.882812 C327.06543,129.408531 327.196857,129.79663 327.459717,130.047119 C327.722576,130.297609 328.067381,130.422852 328.494141,130.422852 Z M338.560059,132 L338.124023,130.571289 L338.049805,130.571289 C337.555011,131.195967 337.057131,131.621174 336.556152,131.846924 C336.055173,132.072674 335.411951,132.185547 334.626465,132.185547 C333.618322,132.185547 332.831302,131.913414 332.265381,131.369141 C331.69946,130.824867 331.416504,130.054855 331.416504,129.059082 C331.416504,128.00146 331.809241,127.203616 332.594727,126.665527 C333.380212,126.127439 334.576978,125.833659 336.185059,125.78418 L337.957031,125.728516 L337.957031,125.181152 C337.957031,124.52555 337.803957,124.035402 337.497803,123.710693 C337.191649,123.385985 336.716963,123.223633 336.07373,123.223633 C335.548012,123.223633 335.043948,123.300943 334.561523,123.455566 C334.079099,123.61019 333.615237,123.792642 333.169922,124.00293 L332.464844,122.444336 C333.021487,122.153644 333.630693,121.932537 334.29248,121.781006 C334.954268,121.629475 335.578936,121.553711 336.166504,121.553711 C337.471523,121.553711 338.456458,121.838213 339.121338,122.407227 C339.786218,122.97624 340.118652,123.869948 340.118652,125.088379 L340.118652,132 L338.560059,132 Z M335.312988,130.515625 C336.104659,130.515625 336.740151,130.294517 337.219482,129.852295 C337.698814,129.410073 337.938477,128.790043 337.938477,127.992188 L337.938477,127.101562 L336.621094,127.157227 C335.594396,127.194336 334.847577,127.365965 334.380615,127.672119 C333.913653,127.978273 333.680176,128.446774 333.680176,129.077637 C333.680176,129.535321 333.816242,129.889403 334.088379,130.139893 C334.360516,130.390382 334.768715,130.515625 335.312988,130.515625 Z M345.443848,126.758301 L342.001953,121.739258 L344.488281,121.739258 L346.826172,125.32959 L349.182617,121.739258 L351.650391,121.739258 L348.199219,126.758301 L351.82666,132 L349.358887,132 L346.826172,128.15918 L344.302734,132 L341.834961,132 L345.443848,126.758301 Z" id="BEM-syntax" fill="#0071BC"></path>
        </g>
    </g>
</svg>