<svg width="503" height="146" xmlns="http://www.w3.org/2000/svg"><g fill="none" fill-rule="nonzero"><path d="M161.883 82.055c-6.559.035-12.26 1.614-17.032 3.95-1.752-3.469-3.503-6.56-3.812-8.826-.343-2.644-.755-4.258-.343-7.418s2.266-7.658 2.232-8.002c-.035-.343-.412-1.957-4.19-1.991-3.777-.035-7.04.72-7.417 1.717-.378.996-1.099 3.262-1.58 5.597-.652 3.435-7.554 15.695-11.503 22.116-1.27-2.506-2.37-4.704-2.61-6.456-.343-2.644-.755-4.258-.343-7.418.412-3.159 2.266-7.658 2.232-8.001-.035-.344-.412-1.958-4.19-1.992-3.777-.034-7.039.721-7.417 1.717-.377.996-.79 3.331-1.58 5.598-.79 2.266-9.958 22.734-12.361 28.023a158.145 158.145 0 0 1-3.057 6.353s-.034.103-.137.275a86.74 86.74 0 0 1-1.03 1.957v.034c-.515.928-1.065 1.786-1.34 1.786-.205 0-.583-2.473.07-5.838 1.373-7.109 4.635-18.167 4.6-18.544 0-.207.619-2.13-2.128-3.126-2.679-.995-3.64.653-3.88.653-.24 0-.413.584-.413.584s2.988-12.432-5.7-12.432c-5.425 0-12.911 5.941-16.62 11.298C60 84.94 55.02 87.653 49.697 90.572c-2.026 1.133-4.12 2.267-6.078 3.331-.137-.137-.274-.309-.412-.446C32.7 82.227 13.264 74.294 14.088 59.218c.309-5.494 2.198-19.918 37.326-37.432 28.914-14.252 51.92-10.303 55.904-1.546 5.7 12.5-12.328 35.716-42.202 39.081-11.4 1.27-17.376-3.125-18.887-4.773-1.58-1.717-1.82-1.82-2.404-1.477-.961.515-.343 2.06 0 2.953.893 2.336 4.568 6.457 10.783 8.483 5.494 1.786 18.852 2.781 35.026-3.469 18.096-7.005 32.244-26.477 28.089-42.79-4.155-16.552-31.626-22.012-57.62-12.775-15.453 5.495-32.21 14.15-44.264 25.413C1.52 44.28-.746 55.921.181 60.798 3.51 78.106 27.377 89.37 36.923 97.715c-.48.275-.927.515-1.305.721-4.773 2.37-22.972 11.883-27.505 21.945-5.15 11.401.824 19.574 4.773 20.673 12.26 3.4 24.861-2.713 31.626-12.81 6.765-10.096 5.94-23.214 2.816-29.224a.718.718 0 0 0-.137-.206c1.236-.721 2.506-1.477 3.743-2.198a182.577 182.577 0 0 1 6.902-3.88c-1.168 3.193-2.026 7.005-2.438 12.5-.515 6.456 2.129 14.836 5.597 18.132 1.545 1.443 3.365 1.477 4.533 1.477 4.052 0 5.872-3.365 7.898-7.349 2.472-4.877 4.704-10.543 4.704-10.543s-2.781 15.316 4.773 15.316c2.747 0 5.529-3.571 6.765-5.391v.034s.069-.103.206-.343c.275-.447.446-.721.446-.721v-.07c1.1-1.922 3.572-6.284 7.246-13.53 4.739-9.34 9.306-21.017 9.306-21.017s.412 2.85 1.82 7.59c.824 2.781 2.54 5.838 3.914 8.791-1.098 1.546-1.785 2.404-1.785 2.404l.034.034c-.893 1.168-1.854 2.439-2.919 3.675-3.743 4.464-8.207 9.581-8.825 11.058-.721 1.751-.55 3.022.824 4.052.996.756 2.782.859 4.602.756 3.365-.24 5.734-1.065 6.902-1.58 1.82-.652 3.949-1.648 5.94-3.125 3.675-2.713 5.907-6.594 5.7-11.71-.102-2.817-1.03-5.633-2.163-8.277.344-.48.653-.961.996-1.442 5.803-8.483 10.302-17.79 10.302-17.79s.412 2.851 1.82 7.59c.687 2.404 2.095 5.014 3.33 7.556-5.46 4.43-8.824 9.58-10.026 12.946-2.164 6.25-.481 9.067 2.713 9.719 1.442.31 3.502-.378 5.013-1.03 1.923-.618 4.19-1.683 6.353-3.263 3.674-2.713 7.21-6.49 7.005-11.607-.103-2.335-.721-4.636-1.58-6.869 4.636-1.923 10.611-2.987 18.234-2.094 16.346 1.923 19.573 12.122 18.955 16.415-.618 4.293-4.052 6.628-5.185 7.35-1.133.72-1.51.96-1.408 1.476.138.755.687.72 1.649.584 1.339-.24 8.584-3.469 8.893-11.368.515-10.096-9.1-21.12-26.097-21.017ZM35.79 124.57c-5.425 5.907-12.98 8.14-16.242 6.25-3.503-2.026-2.13-10.748 4.533-16.999 4.052-3.811 9.271-7.349 12.74-9.512.79-.481 1.957-1.168 3.365-2.026.24-.138.377-.206.377-.206l.824-.516c2.438 8.93.103 16.794-5.597 23.01Zm39.49-26.855c-1.889 4.602-5.838 16.381-8.241 15.729-2.06-.55-3.331-9.479-.412-18.304 1.476-4.43 4.6-9.72 6.42-11.78 2.954-3.296 6.216-4.395 7.006-3.056.996 1.751-3.606 14.526-4.773 17.411Zm32.588 15.591c-.79.412-1.546.687-1.89.481-.24-.137.344-.687.344-.687s4.087-4.395 5.7-6.387c.928-1.168 2.027-2.542 3.194-4.087v.446c0 5.255-5.082 8.792-7.348 10.234Zm25.136-5.735c-.584-.412-.481-1.786 1.476-6.078.756-1.683 2.541-4.499 5.598-7.212.343 1.099.583 2.164.549 3.16-.034 6.627-4.773 9.1-7.623 10.13Z" fill="#CD6799"/><path fill="#264DE4" d="m502.372 29.397-9.327 104.479-41.922 11.622-41.807-11.606L400 29.397z"/><path fill="#2965F1" d="m485.06 127.223 7.97-89.282h-41.844v98.673z"/><path fill="#EBEBEB" d="m421.358 76.697 1.148 12.816h28.68V76.697zM451.186 50.757H419.05l1.165 12.816h30.97zM451.186 123.315V109.98l-.056.015-14.273-3.854-.913-10.221H423.08l1.796 20.122 26.252 7.288z"/><path fill="#000" d="M424.092 1h15.523v6.491h-9.031v6.491h9.03v6.491h-15.522zM442.72 1h15.521v5.644h-9.03v1.13h9.03v12.982H442.72v-5.927h9.031V13.7h-9.03zM461.346 1h15.522v5.644h-9.031v1.13h9.031v12.982h-15.522v-5.927h9.03V13.7h-9.03z"/><path fill="#FFF" d="m466.923 89.513-1.488 16.62-14.294 3.859v13.333l26.274-7.282.192-2.165 3.012-33.74.313-3.441 2.313-25.94h-32.104v12.816h18.06l-1.167 13.124h-16.893v12.816z"/><path d="m330.5 54.5 34 17-34 17v-14h-102v-6h102v-14Z" fill="#262626"/></g></svg>