<svg xmlns="http://www.w3.org/2000/svg" width="26" height="26" viewBox="0 0 26 26">
  <path fill="#000" fill-rule="nonzero" d="M14.5022482 4.61960432L25.368705 15.4977518C25.7895683 15.9010791 26 16.3979317 26 17c0 .6020683-.2104317 1.0989209-.631295 1.5022482l-1.2508992 1.2684353c-.4091727.4091726-.9118705.6196043-1.5022482.6196043-.5786871 0-1.0872303-.2045864-1.5197842-.6196043L13 11.6632194l-8.10746403 8.1074641c-.40917266.4091726-.9118705.6196043-1.5022482.6196043-.57868705 0-1.08723022-.2045864-1.51978417-.6196043L.61960432 18.5022482C.21043166 18.0930755 0 17.5903777 0 17c0-.5903777.20458633-1.0930755.61960432-1.5022482L11.4802158 4.61960432C11.9127698 4.21043165 12.4213129 4 13 4c.5903777 0 1.0930755.20458633 1.5022482.61960432z"/>
</svg>
