<svg xmlns="http://www.w3.org/2000/svg" width="26" height="26" viewBox="0 0 26 26">
  <path fill="#000" fill-rule="nonzero" d="M14.5022482 20.7706835L25.368705 9.89253597C25.7895683 9.48920863 26 8.99235612 26 8.39028777c0-.60206835-.2104317-1.09892086-.631295-1.5022482l-1.2508992-1.26843525C23.7086331 5.21043165 23.2059353 5 22.6155576 5c-.5786871 0-1.0872303.20458633-1.5197842.61960432L13 13.7270683 4.89253597 5.61960432C4.4833633 5.21043165 3.98066547 5 3.39028777 5c-.57868705 0-1.08723022.20458633-1.51978417.61960432L.61960432 6.88803957C.21043166 7.29721223 0 7.79991007 0 8.39028777c0 .5903777.20458633 1.09307554.61960432 1.5022482L11.4802158 20.7706835c.432554.4091726.9410971.6196043 1.5197842.6196043.5903777 0 1.0930755-.2045864 1.5022482-.6196043z"/>
</svg>
