<svg xmlns="http://www.w3.org/2000/svg" width="16" height="12" viewBox="0 0 16 12"><g fill="none"><g fill="#12890E"><path d="M16 2.3434343399999875C16 2.090909090000025 15.896774199999982 1.8383838400000059 15.71096769999997 1.6565656600000125L14.307096799999954 0.2828282799999897C14.121290300000055 0.10101009999999633 13.86322580000001 0 13.605161299999963 0 13.347096800000031 0 13.089032299999985 0.10101009999999633 12.903225799999973 0.2828282799999897L6.13161290000005 6.919191899999987 3.096774190000019 3.939393940000002C2.9109677400000464 3.757575760000009 2.6529032299999926 3.6565656600000125 2.3948387100000446 3.6565656600000125 2.136774189999983 3.6565656600000125 1.8787096800000427 3.757575760000009 1.6929032299999562 3.939393940000002L0.2890322580000202 5.313131300000009C0.1032258059999549 5.494949500000018 0 5.747474699999998 0 6 0 6.252525300000002 0.1032258059999549 6.505050499999982 0.2890322580000202 6.686868699999991L5.429677419999962 11.717171699999994C5.615483870000048 11.898989900000004 5.873548389999996 12 6.13161290000005 12 6.389677419999998 12 6.647741939999946 11.898989900000004 6.833548390000033 11.717171699999994L15.71096769999997 3.0303030300000273C15.896774199999982 2.848484849999977 16 2.5959596000000147 16 2.3434343399999875Z"/></g></g></svg>
