<svg xmlns="http://www.w3.org/2000/svg">
  <symbol id="add" width="1em" height="1em" viewBox="3 3 18 18">
    <path d="M19 13h-6v6h-2v-6H5v-2h6V5h2v6h6v2z" />
  </symbol>
  <symbol id="alert-circle" width="1em" height="1em" viewBox="37 2 135 135">
    <path
      d="M162.18 41.592c-5.595-9.586-13.185-17.176-22.771-22.771-9.588-5.595-20.055-8.392-31.408-8.392-11.352 0-21.821 2.797-31.408 8.392-9.587 5.594-17.177 13.184-22.772 22.771-5.596 9.587-8.393 20.057-8.393 31.408 0 11.351 2.798 21.82 8.392 31.408 5.595 9.584 13.185 17.176 22.772 22.771 9.587 5.595 20.056 8.392 31.408 8.392s21.822-2.797 31.408-8.392c9.586-5.594 17.176-13.185 22.771-22.771C167.773 94.82 170.57 84.35 170.57 73c0-11.351-2.797-21.822-8.39-31.408zm-43.75 70.433c0 .761-.246 1.398-.734 1.914s-1.086.773-1.793.773H100.26c-.706 0-1.331-.271-1.874-.814-.543-.543-.814-1.168-.814-1.873V96.546c0-.706.271-1.331.814-1.874.543-.543 1.168-.814 1.874-.814h15.643c.707 0 1.306.258 1.793.773.488.518.734 1.154.734 1.915v15.479zm-.164-28.026c-.055.543-.339 1.019-.854 1.426-.517.407-1.154.61-1.914.61h-15.073c-.761 0-1.413-.203-1.956-.61-.543-.407-.815-.883-.815-1.426l-1.385-50.595c0-.653.271-1.141.814-1.467.544-.434 1.196-.652 1.956-.652h17.926c.761 0 1.412.217 1.955.652.543.326.813.815.813 1.467l-1.467 50.595z"
    />
  </symbol>
  <symbol id="arrow-right" width="1em" height="1em" viewBox="0 0 320 512">
    <path
      fill="currentColor"
      d="M285.476 272.971L91.132 467.314c-9.373 9.373-24.569 9.373-33.941 0l-22.667-22.667c-9.357-9.357-9.375-24.522-.04-33.901L188.505 256 34.484 101.255c-9.335-9.379-9.317-24.544.04-33.901l22.667-22.667c9.373-9.373 24.569-9.373 33.941 0L285.475 239.03c9.373 9.372 9.373 24.568.001 33.941z"
    />
  </symbol>
  <symbol id="arrow-up" width="1em" height="1em" viewBox="0 0 320 512">
    <path
      fill="currentColor"
      transform="rotate(-90 160 256)"
      d="M285.476 272.971L91.132 467.314c-9.373 9.373-24.569 9.373-33.941 0l-22.667-22.667c-9.357-9.357-9.375-24.522-.04-33.901L188.505 256 34.484 101.255c-9.335-9.379-9.317-24.544.04-33.901l22.667-22.667c9.373-9.373 24.569-9.373 33.941 0L285.475 239.03c9.373 9.372 9.373 24.568.001 33.941z"
    />
  </symbol>
  <symbol id="arrow-down" width="1em" height="1em" viewBox="0 0 320 512">
    <path
      fill="currentColor"
      transform="rotate(90 160 256)"
      d="M285.476 272.971L91.132 467.314c-9.373 9.373-24.569 9.373-33.941 0l-22.667-22.667c-9.357-9.357-9.375-24.522-.04-33.901L188.505 256 34.484 101.255c-9.335-9.379-9.317-24.544.04-33.901l22.667-22.667c9.373-9.373 24.569-9.373 33.941 0L285.475 239.03c9.373 9.372 9.373 24.568.001 33.941z"
    />
  </symbol>
  <symbol id="arrow-left" width="1em" height="1em" viewBox="0 0 320 512">
    <path
      fill="currentColor"
      transform="rotate(180 160 256)"
      d="M285.476 272.971L91.132 467.314c-9.373 9.373-24.569 9.373-33.941 0l-22.667-22.667c-9.357-9.357-9.375-24.522-.04-33.901L188.505 256 34.484 101.255c-9.335-9.379-9.317-24.544.04-33.901l22.667-22.667c9.373-9.373 24.569-9.373 33.941 0L285.475 239.03c9.373 9.372 9.373 24.568.001 33.941z"
    />
  </symbol>
  <symbol id="arrows-stacked" width="1em" height="1em" viewBox="0 0 10 14">
    <path
      d="M.626 6h8.747a.624.624 0 00.443-1.067L5.44.183a.614.614 0 00-.875 0L.184 4.934a.614.614 0 000 .876.604.604 0 00.442.19zm8.747 2H.626a.604.604 0 00-.442.181.614.614 0 000 .876l4.38 4.76a.614.614 0 00.876 0l4.376-4.75A.624.624 0 009.373 8z"
      fillRule="evenodd"
    />
  </symbol>
  <symbol id="building-circle" width="1em" height="1em" viewBox="0 0 54 54">
    <g>
      <path
        className="ds-c-icon--building-circle__building"
        fill="currentColor"
        d="M36.5,20.91v1.36H35.15a0.71,0.71,0,0,1-.73.68H18.23a0.71,0.71,0,0,1-.73-0.68H16.14V20.91l10.18-4.07Zm0,13.57v1.36H16.14V34.48a0.71,0.71,0,0,1,.73-0.68h18.9A0.71,0.71,0,0,1,36.5,34.48ZM21.57,23.62v8.14h1.36V23.62h2.71v8.14H27V23.62h2.71v8.14h1.36V23.62h2.71v8.14h0.63a0.71,0.71,0,0,1,.73.68v0.68H17.5V32.45a0.71,0.71,0,0,1,.73-0.68h0.63V23.62h2.71Z"
      />
      <circle
        className="ds-c-icon--building-circle__circle"
        fill="none"
        cx="50%"
        cy="50%"
        r="47%"
        stroke="currentColor"
        strokeWidth="1"
      />
    </g>
  </symbol>
  <symbol id="calendar" width="1em" height="1em" viewBox="0 0 448 512">
    <path
      d="M152 64H296V24C296 10.75 306.7 0 320 0C333.3 0 344 10.75 344 24V64H384C419.3 64 448 92.65 448 128V448C448 483.3 419.3 512 384 512H64C28.65 512 0 483.3 0 448V128C0 92.65 28.65 64 64 64H104V24C104 10.75 114.7 0 128 0C141.3 0 152 10.75 152 24V64zM48 448C48 456.8 55.16 464 64 464H384C392.8 464 400 456.8 400 448V192H48V448z"
    />
  </symbol>
  <symbol id="check-circle" width="1em" height="1em" viewBox="38 7 135 135">
    <path
      d="M162.18 41.592c-5.595-9.586-13.185-17.176-22.771-22.771-9.588-5.595-20.055-8.392-31.408-8.392-11.352 0-21.822 2.797-31.408 8.392-9.587 5.594-17.177 13.184-22.772 22.771-5.596 9.587-8.393 20.057-8.393 31.408 0 11.352 2.798 21.82 8.392 31.408 5.595 9.585 13.185 17.176 22.772 22.771 9.587 5.595 20.056 8.392 31.408 8.392s21.822-2.797 31.408-8.392c9.586-5.594 17.176-13.185 22.771-22.771 5.594-9.587 8.391-20.057 8.391-31.408 0-11.352-2.797-21.822-8.39-31.408zm-13.608 21.876l-44.239 44.239c-1.032 1.032-2.281 1.549-3.748 1.549-1.412 0-2.634-.517-3.666-1.549L67.425 78.215c-.977-.979-1.466-2.199-1.466-3.666 0-1.521.488-2.771 1.466-3.749l7.414-7.332c1.033-1.032 2.254-1.548 3.667-1.548s2.635.516 3.667 1.548l18.413 18.413 33.241-33.16c1.032-1.032 2.254-1.548 3.666-1.548 1.411 0 2.635.516 3.666 1.548l7.414 7.333c.979.977 1.467 2.226 1.467 3.747 0 1.467-.488 2.689-1.468 3.667z"
    />
  </symbol>
</svg>
