<?xml version="1.0" encoding="UTF-8"?>
<svg width="24px" height="24px" viewBox="0 0 24 24" version="1.1" xmlns="http://www.w3.org/2000/svg" xmlns:xlink="http://www.w3.org/1999/xlink">
    <!-- Generator: Sketch 55.2 (78181) - https://sketchapp.com -->
    <title>Icon / Information (new)</title>
    <desc>Created with Sketch.</desc>
    <g id="Page-1" stroke="none" stroke-width="1" fill="none" fill-rule="evenodd">
        <g id="info-new-hover">
            <g id="Icon-/-Information-(new)---hover">
                <g id="i-icon-and-outline">
                    <path d="M12,0 C5.4,0 0,5.4 0,12 C0,18.6 5.4,24 12,24 C18.6,24 24,18.6 24,12 C24,5.4 18.6,0 12,0 Z M12,20 C7.6,20 4,16.4 4,12 C4,7.6 7.6,4 12,4 C16.4,4 20,7.6 20,12 C20,16.4 16.4,20 12,20 Z" id="Shape" fill="#D6D7D9" fill-rule="nonzero"></path>
                    <g id="_xD83C__xDFDD_-Plan-Cards" transform="translate(4.000000, 4.000000)" fill="#5B616B" fill-rule="nonzero">
                        <g id="Artboard-3">
                            <g id="i-circle">
                                <path d="M8,16 C3.6,16 0,12.4 0,8 C0,3.6 3.6,0 8,0 C12.4,0 16,3.6 16,8 C16,12.4 12.4,16 8,16 Z M9,12.3 L9,6.4 L7,6.4 L7,12.3 L9,12.3 Z M7,4.9 C7,5.5 7.3,5.8 8,5.8 C8.7,5.8 9,5.5 9,4.9 C9,4.6 8.9,4.4 8.8,4.2 C8.6,4.1 8.3,4 8,4 C7.7,4 7.4,4.1 7.2,4.2 C7.1,4.4 7,4.6 7,4.9 Z" id="Combined-Shape"></path>
                            </g>
                        </g>
                    </g>
                </g>
            </g>
        </g>
    </g>
</svg>