<?xml version="1.0" encoding="UTF-8"?>
<svg width="18px" height="22px" viewBox="0 0 18 22" version="1.1" xmlns="http://www.w3.org/2000/svg" xmlns:xlink="http://www.w3.org/1999/xlink">
    <!-- Generator: Sketch 55.2 (78181) - https://sketchapp.com -->
    <title>Icon / PDF (new)</title>
    <desc>Created with Sketch.</desc>
    <g id="Page-1" stroke="none" stroke-width="1" fill="none" fill-rule="evenodd">
        <g id="pdf">
            <g id="Icon-/-PDF-(new)">
                <g id="file-pdf">
                    <path d="M11.0692829,6.875 L17.1395349,6.875 L17.1395349,20.96875 C17.1395349,21.5402344 16.6619489,22 16.068314,22 L1.07122093,22 C0.477585998,22 0,21.5402344 0,20.96875 L0,1.03125 C0,0.459765625 0.477585998,0 1.07122093,0 L9.99806202,0 L9.99806202,5.84375 C9.99806202,6.4109375 10.4801114,6.875 11.0692829,6.875 Z M16.8270954,4.51171875 L12.4529433,0.30078125 C12.2520894,0.107421875 11.9798207,0 11.6941618,0 L11.4263566,0 L11.4263566,5.5 L17.1395349,5.5 L17.1395349,5.23789063 C17.1395349,4.9671875 17.0279494,4.70507812 16.8270954,4.51171875 Z" id="Shape" fill="#212121"></path>
                    <path d="M6.05736138,12.7782027 C6.05736138,13.4028075 5.87316946,13.8852755 5.50478011,14.2256214 C5.13639076,14.5659673 4.61313277,14.7361377 3.93499044,14.7361377 L3.51051625,14.7361377 L3.51051625,16.5908222 L2,16.5908222 L2,11 L3.93499044,11 C4.64117625,11 5.17144501,11.1542368 5.52581262,11.4627151 C5.88018023,11.7711934 6.05736138,12.2096849 6.05736138,12.7782027 Z M3.51051625,13.5047801 L3.78585086,13.5047801 C4.01274811,13.5047801 4.19311597,13.4410459 4.32695985,13.3135755 C4.46080373,13.1861052 4.52772467,13.0101987 4.52772467,12.7858509 C4.52772467,12.4085386 4.31867641,12.2198853 3.90057361,12.2198853 L3.51051625,12.2198853 L3.51051625,13.5047801 Z M11.6940727,13.6768642 C11.6940727,14.6099473 11.4372237,15.3288694 10.9235182,15.833652 C10.4098126,16.3384346 9.68770382,16.5908222 8.75717017,16.5908222 L6.94837476,16.5908222 L6.94837476,11 L8.8833652,11 C9.78075656,11 10.4735476,11.2294432 10.9617591,11.6883365 C11.4499706,12.1472298 11.6940727,12.8100658 11.6940727,13.6768642 Z M10.126195,13.7304015 C10.126195,13.2179707 10.0248576,12.8381147 9.82217973,12.5908222 C9.61950185,12.3435297 9.31166554,12.2198853 8.89866157,12.2198853 L8.45889101,12.2198853 L8.45889101,15.3518164 L8.79541109,15.3518164 C9.2543044,15.3518164 9.59082111,15.2186119 9.80497132,14.9521989 C10.0191215,14.6857858 10.126195,14.2785241 10.126195,13.7304015 Z M14.1835564,16.5908222 L12.6959847,16.5908222 L12.6959847,11 L16,11 L16,12.2122371 L14.1835564,12.2122371 L14.1835564,13.2791587 L15.8585086,13.2791587 L15.8585086,14.4913958 L14.1835564,14.4913958 L14.1835564,16.5908222 Z" id="PDF" fill="#FFFFFF"></path>
                </g>
            </g>
        </g>
    </g>
</svg>