<svg role="img" width="16" height="11" xmlns="http://www.w3.org/2000/svg" aria-labelledby="banner-flag-title banner-flag-description" focusable="false">
    <title id="banner-flag-title">Flag</title>
    <desc id="banner-flag-description">U.S. flag</desc>
    <g id="svg" fill="none" fill-rule="evenodd">
        <path fill="#FFF" d="M0 0h16v11H0z"/>
        <path fill="#DB3E1F" d="M8 0h8v1H8z"/>
        <path fill="#1E33B1" d="M0 0h8v7H0z"/>
        <path fill="#DB3E1F" d="M8 2h8v1H8zM8 4h8v1H8zM8 6h8v1H8zM0 8h16v1H0zM0 10h16v1H0z"/>
        <path fill="#FFF" d="M1 1h1v1H1zM2 3h1v1H2zM1 5h1v1H1zM3 1h1v1H3zM4 3h1v1H4zM3 5h1v1H3zM5 1h1v1H5zM6 3h1v1H6zM5 5h1v1H5z"/>
    </g>
</svg>
