<svg width="24px" height="24px" viewBox="0 0 24 24" version="1.1" xmlns="http://www.w3.org/2000/svg" xmlns:xlink="http://www.w3.org/1999/xlink">
    <!-- Generator: Sketch 63.1 (92452) - https://sketch.com -->
    <title>Empty Star</title>
    <clipPath id="clipPath1">
        <path d="M11,3.6L8.8,8.3L3.9,9C3,9.2,2.7,10.3,3.3,10.9l3.6,3.6L6,19.7c-0.2,0.9,0.8,1.6,1.6,1.2l4.4-2.4l4.4,2.4 c0.8,0.4,1.7-0.3,1.6-1.2l-0.8-5.1l3.6-3.6c0.6-0.7,0.3-1.8-0.6-1.9l-4.9-0.7L13,3.6C12.6,2.8,11.4,2.8,11,3.6z" />
      </clipPath>
      <clipPath id="clipPath2">
        <rect x="-8" y="-8" width="40" height="40" />
      </clipPath>
      <clipPath id="clipPath3">
        <rect x="3" y="3" width="18" height="18" />
      </clipPath>
      <g clipPath="url(#clipPath1)">
        <g
          clipPath="url(#clipPath2)"
          fill="none"
          stroke="#1E3C70"
          strokeWidth="2"
          strokeMiterlimit="10"
        >
          <path
            clipPath="url(#clipPath3)"
            d="M11,3.6L8.8,8.3L3.9,9C3,9.2,2.7,10.3,3.3,10.9l3.6,3.6L6,19.7c-0.2,0.9,0.8,1.6,1.6,1.2l4.4-2.4l4.4,2.4 c0.8,0.4,1.7-0.3,1.6-1.2l-0.8-5.1l3.6-3.6c0.6-0.7,0.3-1.8-0.6-1.9l-4.9-0.7L13,3.6C12.6,2.8,11.4,2.8,11,3.6z"
          />
        </g>
      </g>
</svg>