<svg width="24px" height="24px" viewBox="0 0 24 24" version="1.1" xmlns="http://www.w3.org/2000/svg" xmlns:xlink="http://www.w3.org/1999/xlink" xml:space="preserve"
      style="enable-background:new 0 0 24 24;">
    <!-- Generator: Sketch 63.1 (92452) - https://sketch.com -->
    <title>Filled Star</title>
    <g>
        <polygon
          fillRule="evenodd"
          clipRule="evenodd"
          fill="#1E3C70"
          points="12.5,17.5 18.4,21 16.8,14.3 22,9.9 15.2,9.3 12.5,3 9.8,9.3 3,9.9 8.2,14.3 6.6,21"
        />
        <path
          fillRule="evenodd"
          clipRule="evenodd"
          fill="#1E3C70"
          d="M11.5,3.6L9.2,8.3L4,9C3,9.2,2.7,10.3,3.3,10.9l3.8,3.6l-0.9,5.1c-0.2,0.9,0.8,1.6,1.6,1.2
          l4.6-2.4l4.6,2.4c0.8,0.4,1.8-0.3,1.6-1.2l-0.9-5.1l3.8-3.6C22.3,10.3,22,9.2,21,9l-5.2-0.7l-2.3-4.7C13.1,2.8,11.9,2.8,11.5,3.6z"
        />
      </g>
</svg>