<svg width="150" height="150" viewBox="0 0 150 150" xmlns="http://www.w3.org/2000/svg" style="background:#00767B"><title>Artboard</title><path d="M39.314 92l-2.174-7.137H26.21L24.035 92h-6.85l10.582-30.105h7.773L46.165 92h-6.85zm-3.69-12.47c-2.01-6.466-3.143-10.123-3.395-10.97-.254-.848-.436-1.518-.545-2.01-.45 1.75-1.743 6.077-3.876 12.98h7.813zm23.13 12.88c-7.135 0-10.704-3.917-10.704-11.75 0-3.897.97-6.874 2.912-8.932 1.942-2.058 4.724-3.086 8.347-3.086 2.65 0 5.03.52 7.136 1.558L64.6 75.04c-.984-.396-1.9-.72-2.748-.974-.848-.253-1.695-.38-2.543-.38-3.255 0-4.882 2.31-4.882 6.932 0 4.485 1.627 6.727 4.88 6.727 1.204 0 2.318-.16 3.344-.482 1.025-.32 2.05-.824 3.076-1.508v5.353c-1.012.643-2.034 1.087-3.066 1.333-1.032.247-2.334.37-3.907.37zM91.57 92h-6.255V78.608c0-1.654-.277-2.895-.83-3.722-.554-.827-1.426-1.24-2.615-1.24-1.6 0-2.762.587-3.487 1.763-.723 1.175-1.086 3.11-1.086 5.803V92H71.04V69.072h4.778l.84 2.933h.35c.615-1.053 1.503-1.877 2.665-2.47 1.162-.596 2.495-.893 4-.893 3.43 0 5.755 1.12 6.972 3.363h.554c.614-1.067 1.52-1.894 2.716-2.482 1.196-.587 2.546-.88 4.05-.88 2.598 0 4.563.665 5.896 1.998 1.333 1.334 2 3.47 2 6.41V92h-6.276V78.608c0-1.654-.276-2.895-.83-3.722-.554-.827-1.425-1.24-2.615-1.24-1.53 0-2.675.546-3.434 1.64-.76 1.094-1.138 2.83-1.138 5.21V92zm30.208-18.908c-1.326 0-2.365.42-3.117 1.26-.753.842-1.184 2.035-1.293 3.58h8.777c-.027-1.545-.43-2.738-1.21-3.58-.78-.84-1.832-1.26-3.158-1.26zm.882 19.318c-3.692 0-6.576-1.018-8.655-3.056-2.078-2.037-3.117-4.92-3.117-8.654 0-3.842.96-6.812 2.882-8.91 1.92-2.1 4.576-3.148 7.967-3.148 3.24 0 5.763.922 7.567 2.768 1.805 1.846 2.707 4.396 2.707 7.65v3.035h-14.787c.07 1.777.595 3.165 1.58 4.163.984.998 2.364 1.497 4.142 1.497 1.38 0 2.686-.144 3.917-.43 1.23-.288 2.515-.746 3.855-1.375v4.84c-1.093.547-2.262.954-3.507 1.22-1.244.267-2.76.4-4.552.4z" fill="#FFF" fill-rule="evenodd"/></svg>