<svg xmlns="http://www.w3.org/2000/svg" viewBox="0 0 54 54"><g id="svg"><path fill="#2378c3" d="M36.5 20.91v1.36h-1.35a.71.71 0 01-.73.68H18.23a.71.71 0 01-.73-.68h-1.36v-1.36l10.18-4.07zm0 13.57v1.36H16.14v-1.36a.71.71 0 01.73-.68h18.9a.71.71 0 01.73.68zM21.57 23.62v8.14h1.36v-8.14h2.71v8.14H27v-8.14h2.71v8.14h1.36v-8.14h2.71v8.14h.63a.71.71 0 01.73.68v.68H17.5v-.67a.71.71 0 01.73-.68h.63v-8.15h2.71z"/><circle fill="none" stroke="#005ea2" stroke-miterlimit="10" cx="27" cy="27.12" r="26"/></g></svg>