<svg role="img" width="16" height="11" xmlns="http://www.w3.org/2000/svg" aria-labelledby="banner-flag-title banner-flag-description"><title id="banner-flag-title">U.S. Bandera</title><desc id="banner-flag-description">U.S. Bandera</desc><g id="svg" fill="none" fill-rule="evenodd"><path fill="#FFF" d="M0 0h16v11H0z"/><path fill="#DB3E1F" d="M8 0h8v1H8z"/><path fill="#1E33B1" d="M0 0h8v7H0z"/><path fill="#DB3E1F" d="M8 2h8v1H8zm0 2h8v1H8zm0 2h8v1H8zM0 8h16v1H0zm0 2h16v1H0z"/><path fill="#FFF" d="M1 1h1v1H1zm1 2h1v1H2zM1 5h1v1H1zm2-4h1v1H3zm1 2h1v1H4zM3 5h1v1H3zm2-4h1v1H5zm1 2h1v1H6zM5 5h1v1H5z"/></g></svg>