<?xml version="1.0" encoding="utf-8"?>
<!-- Generator: Adobe Illustrator 24.1.0, SVG Export Plug-In . SVG Version: 6.00 Build 0)  -->
<svg version="1.1" id="Layer_1" xmlns="http://www.w3.org/2000/svg" xmlns:xlink="http://www.w3.org/1999/xlink" x="0px" y="0px"
	 viewBox="0 0 24 24" style="enable-background:new 0 0 24 24;" xml:space="preserve">
<style type="text/css">
	.st0{fill-rule:evenodd;clip-rule:evenodd;fill:#050505;}
</style>
<title>Caution Circle</title>
<g id="Icons_x2F_caution">
	<path id="in-circle" class="st0" d="M12,1c6.1,0,11,4.9,11,11c0,6.1-4.9,11-11,11S1,18.1,1,12C1,5.9,5.9,1,12,1z M12,14
		c-1.1,0-2,0.9-2,2s0.9,2,2,2s2-0.9,2-2S13.1,14,12,14z M13.5,6h-2.9l-0.1,0c-0.3,0-0.5,0.3-0.5,0.5l0,0l0.3,5.9l0,0.1
		c0.1,0.2,0.3,0.4,0.5,0.4l0,0h2.2l0.1,0c0.2,0,0.4-0.2,0.5-0.5l0,0L14,6.6l0-0.1C14,6.2,13.7,6,13.5,6L13.5,6z"/>
</g>
</svg>