<svg xmlns="http://www.w3.org/2000/svg" xmlns:xlink="http://www.w3.org/1999/xlink" viewBox="0 0 24 24">
    <path d="M4,22.0716609 L4,20 L11.8371335,20 L20,20 L20,22.0716609 L20,24 L11.8371335,24 L4,24 L4,22.0716609 Z M2,6.67077088 L3.36180156,5.30961344 L4.72360238,4 L7.32922808,6.55398347 L10,9 L10,4.5797551 L10,0 L11.8631923,0 L14,0 L14,4.5536963 L14,9 L16.36487,6.5341524 C17.7802066,5.1188704 18.9856432,4 19,4 C19.0143575,4 19.6001335,4.57071378 20.3453436,5.31602731 L21.7002711,6.67114243 L16.788246,11.5830693 C14.0866324,14.284629 11.8644835,16.4950227 11.850137,16.4950545 C11.8357906,16.4950811 9.61364022,14.2846364 6.91202656,11.5829422 L2,6.67077088 Z" id="download"></path>
    <polygon viewBox="0 0 24 24" points="24 12 13.98312 22 7.35888 22 14.98512 14 0 14 0 10 14.93112 10 7.3452 2 14 2" id="next"></polygon>
    <path d="M22.5,3 C23.3320312,3 24,3.66796875 24,4.5 L24,19.5 C24,20.3320312 23.3320312,21 22.5,21 L1.5,21 C0.66796875,21 0,20.3320312 0,19.5 L0,4.5 C0,3.66796875 0.66796875,3 1.5,3 L22.5,3 Z M5.25,6 C3.99609375,6 3,6.99609375 3,8.25 C3,9.50390625 3.99609375,10.5 5.25,10.5 C6.50390625,10.5 7.5,9.50390625 7.5,8.25 C7.5,6.99609375 6.50390625,6 5.25,6 Z M21,18 L15,9 L9.50390625,15.9960938 L6,13.5 L3,18 L21,18 Z" id="image"></path>
</svg>